<svg width="113" height="113" viewBox="0 0 113 113" fill="none" xmlns="http://www.w3.org/2000/svg">
<g filter="url(#filter0_d_1_11114)">
<circle cx="56.5" cy="46.4424" r="36" fill="#E3B873"/>
</g>
<path d="M56.8394 53.7208C57.2176 53.7208 57.5269 54.0199 57.5269 54.3917V55.7159C57.5269 56.0877 57.2176 56.3868 56.8394 56.3868C56.4613 56.3867 56.1528 56.0877 56.1528 55.7159V54.3917C56.1528 54.02 56.4613 53.7209 56.8394 53.7208Z" fill="white" stroke="white" stroke-width="0.1"/>
<path d="M60.334 29.8802L60.5957 29.931C61.0557 30.0365 62.0503 30.3346 63.0391 31.0922L63.2861 31.2924C64.4781 32.3033 65.1029 33.592 65.4111 34.8441C67.4209 35.6517 69.2233 36.9324 70.6318 38.5599L70.9014 38.8812C72.2195 40.5056 73.1346 42.4199 73.5576 44.4427L73.5586 44.4467H75.1836L75.3193 44.4525C75.6327 44.4824 75.9236 44.6162 76.1494 44.8363L76.2402 44.9349C76.4405 45.1725 76.5497 45.4677 76.5498 45.7797V51.0795C76.5498 51.816 75.9359 52.4125 75.1836 52.4125H72.6953C71.0318 56.1191 67.6731 58.9753 63.4971 59.9769L63.1768 61.434C62.9757 62.3488 62.1341 63.011 61.1768 63.0111H58.1982C57.0716 63.0109 56.1525 62.1175 56.1523 61.016V60.3617H50.0459C49.3649 60.3617 48.6847 60.3101 48.0146 60.2123V61.016C48.0144 62.1176 47.0955 63.0111 45.9688 63.0111H43.2578C42.6773 63.011 42.1271 62.7709 41.7432 62.3578L41.5889 62.1703C40.3836 60.5047 36.4502 54.4944 36.4502 47.1049C36.4502 43.8071 37.6996 40.646 39.9688 38.2045L40.3828 37.7787C42.4841 35.7082 45.2127 34.374 48.1631 33.975C48.7094 31.9957 50.5654 30.5355 52.7637 30.5355C54.9143 30.5357 56.7349 31.9341 57.3242 33.848H59.5498V30.5443C59.5498 30.3493 59.6365 30.1638 59.7871 30.0365L59.8457 29.9926C59.9875 29.8967 60.1621 29.8564 60.334 29.8802ZM60.9238 36.5062C60.9237 36.8779 60.6144 37.1771 60.2363 37.1771C59.8584 37.1769 59.55 36.8778 59.5498 36.5062V35.1898H57.5264C57.5255 35.6347 57.457 36.0747 57.3291 36.4974H57.5195C57.8975 36.4976 58.206 36.7967 58.2061 37.1683C58.2061 37.54 57.8976 37.839 57.5195 37.8392H48.0078C47.6296 37.8392 47.3203 37.5401 47.3203 37.1683C47.3204 36.7966 47.6296 36.4974 48.0078 36.4974H48.1963C48.0846 36.1278 48.0199 35.7447 48.0049 35.3568C45.4796 35.771 43.1522 36.9504 41.3438 38.7386L40.9863 39.1068C38.9469 41.3009 37.8242 44.1415 37.8242 47.1049C37.8243 54.0966 41.564 59.8107 42.7109 61.3959L42.7617 61.4574C42.8869 61.5927 43.0632 61.6692 43.2578 61.6693H45.9688C46.3403 61.6693 46.6404 61.3751 46.6406 61.016V54.391C46.6409 54.0194 46.9501 53.7201 47.3281 53.7201C47.7061 53.7202 48.0144 54.0195 48.0146 54.391V58.8539C48.683 58.9627 49.364 59.0199 50.0459 59.0199H56.1523V58.3656C56.1525 57.9939 56.4617 57.6947 56.8398 57.6947C57.2179 57.6948 57.5262 57.994 57.5264 58.3656V61.016C57.5266 61.375 57.8268 61.6692 58.1982 61.6693H61.1768C61.4919 61.6692 61.7672 61.451 61.833 61.1527L63.3506 54.2504L63.3936 54.1215C63.5221 53.8352 63.8426 53.6679 64.166 53.7357L64.2979 53.7767C64.5485 53.8838 64.7115 54.1287 64.709 54.3969L64.6934 54.5326L63.8213 58.4974C68.6855 57.0473 72.174 52.7552 72.4414 47.7328L72.4629 47.598C72.5432 47.2953 72.8327 47.0808 73.1631 47.097L73.3008 47.1176C73.5655 47.1846 73.7657 47.4012 73.8066 47.6664L73.8135 47.8021C73.7534 48.9315 73.5457 50.0271 73.21 51.0707H75.1758V45.7885H73.5488C72.9453 45.7885 72.413 45.3912 72.2412 44.8265L72.2119 44.7113C71.832 42.8946 71.009 41.1751 69.8242 39.7152L69.583 39.4271C68.4977 38.173 67.1518 37.1481 65.6523 36.4232C65.6703 36.6809 65.6797 36.9306 65.6797 37.1683C65.6797 37.5401 65.3704 37.8392 64.9922 37.8392C64.6142 37.839 64.3057 37.54 64.3057 37.1683C64.3056 35.1822 63.7408 33.8527 63.0293 32.9652C62.3436 32.11 61.5184 31.6622 60.9238 31.433V36.5062ZM52.7637 31.8773C50.8936 31.8773 49.3742 33.3607 49.374 35.181C49.374 35.6359 49.4721 36.0841 49.6562 36.4974H55.8701C56.0544 36.0843 56.1523 35.6359 56.1523 35.181C56.1522 33.3609 54.6335 31.8775 52.7637 31.8773Z" fill="white" stroke="white" stroke-width="0.1"/>
<path d="M67.0625 43.1219C68.2436 43.1221 69.3097 43.8281 69.7129 44.8827L69.748 45.0145C69.7905 45.2793 69.6656 45.5448 69.4336 45.6864L69.3086 45.7469C69.2299 45.7756 69.1489 45.7889 69.0693 45.7889C68.8264 45.7889 68.595 45.6619 68.4717 45.4491L68.4258 45.3524C68.2234 44.823 67.6764 44.4639 67.0625 44.4637C66.4869 44.4637 65.9695 44.7791 65.7402 45.2548L65.6982 45.3524C65.582 45.6564 65.2651 45.829 64.9502 45.7811L64.8154 45.7469C64.4604 45.6179 64.2779 45.231 64.4111 44.8827L64.4951 44.6893C64.949 43.7426 65.955 43.1219 67.0625 43.1219Z" fill="white" stroke="white" stroke-width="0.1"/>
<path d="M52.7634 41.4659C53.1415 41.466 53.45 41.7651 53.45 42.1368V42.1632C54.4126 42.261 55.2543 42.5618 55.8591 42.9982C56.4732 43.4413 56.8473 44.0273 56.8474 44.6827C56.8474 45.0545 56.5381 45.3536 56.1599 45.3536C55.7819 45.3535 55.4734 45.0544 55.4734 44.6827C55.4733 44.4544 55.2758 44.1982 54.905 43.9767C54.5487 43.7639 54.0449 43.5919 53.45 43.5148V46.5929C54.2199 46.8052 55.0602 47.0759 55.7117 47.5177C56.3757 47.968 56.8473 48.5992 56.8474 49.5265C56.8474 50.182 56.4734 50.7688 55.8591 51.212C55.2543 51.6484 54.4125 51.9482 53.45 52.046V52.0734C53.4498 52.445 53.1415 52.7442 52.7634 52.7443C52.3853 52.7443 52.0761 52.445 52.0759 52.0734V52.046C51.1137 51.9482 50.2724 51.6483 49.6677 51.212C49.0534 50.7688 48.6794 50.1821 48.6794 49.5265C48.6797 49.155 48.988 48.8557 49.366 48.8556C49.744 48.8556 50.0532 49.1549 50.0535 49.5265C50.0535 49.755 50.2507 50.0119 50.6218 50.2335C50.978 50.4462 51.4814 50.6163 52.0759 50.6935V47.6154C51.3062 47.4031 50.4664 47.1332 49.8152 46.6915C49.1511 46.2411 48.6794 45.6103 48.6794 44.6827C48.6795 44.0272 49.0535 43.4413 49.6677 42.9982C50.2725 42.5619 51.1136 42.2611 52.0759 42.1632V42.1368C52.0759 41.765 52.3852 41.4659 52.7634 41.4659ZM53.45 50.6935C54.0448 50.6163 54.5487 50.4463 54.905 50.2335C55.276 50.0119 55.4734 49.7549 55.4734 49.5265C55.4733 49.2047 55.3437 48.94 55.0203 48.6945C54.7021 48.4531 54.1977 48.2324 53.45 48.0001V50.6935ZM52.0759 43.5148C51.4812 43.5919 50.978 43.764 50.6218 43.9767C50.2508 44.1983 50.0536 44.4543 50.0535 44.6827C50.0535 45.0048 50.1827 45.27 50.5066 45.5157C50.8246 45.757 51.3288 45.9759 52.0759 46.2081V43.5148Z" fill="white" stroke="white" stroke-width="0.1"/>
<defs>
<filter id="filter0_d_1_11114" x="0.5" y="0.442383" width="112" height="112" filterUnits="userSpaceOnUse" color-interpolation-filters="sRGB">
<feFlood flood-opacity="0" result="BackgroundImageFix"/>
<feColorMatrix in="SourceAlpha" type="matrix" values="0 0 0 0 0 0 0 0 0 0 0 0 0 0 0 0 0 0 127 0" result="hardAlpha"/>
<feOffset dy="10"/>
<feGaussianBlur stdDeviation="10"/>
<feColorMatrix type="matrix" values="0 0 0 0 0.929412 0 0 0 0 0.752941 0 0 0 0 0.470588 0 0 0 0.2 0"/>
<feBlend mode="normal" in2="BackgroundImageFix" result="effect1_dropShadow_1_11114"/>
<feBlend mode="normal" in="SourceGraphic" in2="effect1_dropShadow_1_11114" result="shape"/>
</filter>
</defs>
</svg>
